<?xml version="1.0" encoding="utf-8"?>
<!-- Generator: Adobe Illustrator 21.0.0, SVG Export Plug-In . SVG Version: 6.00 Build 0)  -->
<svg version="1.1" id="Layer_6" xmlns="http://www.w3.org/2000/svg" xmlns:xlink="http://www.w3.org/1999/xlink" x="0px" y="0px"
	 viewBox="0 0 805.7 310" style="enable-background:new 0 0 805.7 310;" xml:space="preserve">
<style type="text/css">
	.st0{fill-rule:evenodd;clip-rule:evenodd;fill:#8F1D3D;}
	.st1{fill:#8F1D3D;}
	.st2{opacity:0.3;}
	.st3{fill:#FFF200;}
	.st4{fill-rule:evenodd;clip-rule:evenodd;fill:url(#SVGID_1_);}
	.st5{fill-rule:evenodd;clip-rule:evenodd;fill:url(#SVGID_2_);}
	.st6{fill-rule:evenodd;clip-rule:evenodd;fill:url(#SVGID_3_);}
	.st7{fill-rule:evenodd;clip-rule:evenodd;fill:#F7941E;stroke:#FFFFFF;stroke-width:7;stroke-miterlimit:10;}
	.st8{filter:url(#Adobe_OpacityMaskFilter);}
	.st9{mask:url(#SVGID_4_);}
	.st10{fill-rule:evenodd;clip-rule:evenodd;fill:#F7941E;}
	.st11{fill-rule:evenodd;clip-rule:evenodd;fill:#FFFFFF;}
	.st12{fill-rule:evenodd;clip-rule:evenodd;fill:#D1D3D4;}
</style>
<g>
	<g>
		<path class="st0" d="M192.2,236.7l-52,37.5c0,0-6.7,5.7-5.4,14c0,0,1.4,15,17,17.1c0,0,7.5,0.2,13.1-4.1
			c0.1-0.1,48.4-34.8,48.4-34.8s1.7-0.9,0.7-1.8c-0.1-0.1-14.2-13.2-19.8-27.7C194.2,236.8,193.6,235.7,192.2,236.7z"/>
		<g>
			<path class="st1" d="M72.8,234.6c0,0.3-0.3,0.5-1,0.5c-0.8,0-2.1-0.1-3.8-0.2c-1.7-0.1-2.9-0.2-3.8-0.2c-0.9,0-2.3,0.1-4,0.2
				c-1.8,0.1-3.1,0.2-4,0.2c-1,0-1.7-0.5-2.3-1.6c-1.4-2.9-5.3-12-11.8-27.3c-0.6-1.6-2.2-2.5-4.7-2.9c-0.6,0-2.5-0.1-5.9-0.1
				c-6,0-9.5,0.1-10.6,0.3c-0.9,0.1-1.4,1.2-1.4,3.3c0,3,0.1,7.5,0.4,13.6c0.3,6,0.4,10.5,0.4,13.5c0,0.9-0.4,1.4-1.3,1.4
				c-0.9,0-2.2-0.1-3.9-0.3c-1.7-0.2-3.1-0.3-4-0.3c-0.7,0-1.9,0.1-3.4,0.2c-1.5,0.1-2.6,0.2-3.4,0.2c-1.1,0-1.6-0.5-1.6-1.5
				c0-4.8,0.2-12,0.7-21.6c0.5-9.6,0.7-16.8,0.7-21.6c0-13.6-0.5-28.2-1.5-43.7l-0.1-1c0-0.9,0.9-1.3,2.7-1.3
				c3.7,0,9.3-0.1,16.7-0.3c7.4-0.2,12.9-0.3,16.6-0.3c9.6,0,17.3,2.3,23.1,6.9c6.4,5.1,9.6,12.2,9.6,21.5c0,6.4-0.9,11.4-2.6,15.1
				c-1.8,3.9-5.2,7.6-10.1,11.1c-0.8,0.6-1.2,1.1-1.2,1.6c0,0.6,2.6,6.3,7.7,17.2C70.2,228.1,72.8,233.9,72.8,234.6z M55,175.8
				c0-7.8-2.2-13-6.7-15.7c-3.3-1.9-9.3-2.9-17.9-2.9c-7,0-10.6,0.6-10.7,1.7c-0.3,2.3-0.5,8.6-0.5,18.7V190
				c0.1,0.1,0.4,0.2,0.8,0.3c0.8,0.1,2.1,0.2,3.8,0.3c4.1,0.2,8.5,0.3,13.3,0.3C49,190.9,55,185.9,55,175.8z"/>
			<path class="st1" d="M136.3,200.3c0,3.2-1.4,5.3-4.1,6.4c-1.9,0.7-15.2,2-40.1,3.8c0.6,3.8,2.7,7,6.3,9.7
				c3.5,2.5,7.2,3.8,11.1,3.8c6.8,0,13.1-2.2,18.8-6.6c0.7-0.6,1.4-1.1,2.1-1.7c0.3,0,0.6,0,0.7,0.1c0.1,0.1,0.9,1.6,2.4,4.5
				c1.5,2.9,2.3,4.5,2.3,4.7c0,0.3-0.3,0.8-1,1.5c-6.4,6.7-14.5,10.1-24.4,10.1c-10,0-18-3-24-9c-6-6-8.9-14-8.9-23.9
				c0-8.9,2.9-16.7,8.6-23.3c6-6.9,13.4-10.3,22.1-10.3c8.1,0,14.9,3,20.3,8.9C133.7,185,136.3,192,136.3,200.3z M120.9,196.4
				c0-3.6-1.4-6.8-4.2-9.5c-2.8-2.8-6-4.1-9.6-4.1c-4,0-7.5,1.6-10.6,4.8c-3.1,3.2-4.6,6.8-4.6,10.8c0,0.9,0.8,1.4,2.3,1.4
				c6.4,0,14-0.6,22.9-1.9C119.6,197.3,120.9,196.9,120.9,196.4z"/>
			<path class="st1" d="M178.8,152.1c0,0.5-0.4,0.8-1.2,0.9c-2.1,0.2-4.2,0.4-6.3,0.6c-2.5,0.3-4.3,1.2-5.6,2.6
				c-2.1,2.3-3.2,8.1-3.2,17.4c1.4,0,3.7,0,6.7,0.1c3.1,0.1,5.4,0.1,6.9,0.1c1,0,1.6,0.4,1.6,1.2c0,1.2,0,3,0.1,5.4
				c0.1,2.4,0.1,4.2,0.1,5.3c0,0.8-0.4,1.2-1.3,1.2c-1.5,0-3.8-0.1-6.9-0.2c-3.1-0.2-5.3-0.2-6.8-0.2v19.4c0,3,0.1,7.6,0.3,13.7
				c0.2,6.1,0.3,10.7,0.3,13.7c0,1.2-0.4,1.7-1.3,1.7h-11.9c-1.1,0-1.7-0.7-1.7-2v-44.6c0-1.2-1.3-1.7-4-1.7c-2.9,0-4.4-0.1-4.5-0.3
				c-0.1-0.1-0.2-0.9-0.2-2.4c0-0.9,0-2.4-0.1-4.2c-0.1-1.9-0.1-3.3-0.1-4.2c0-0.9,2.7-1.5,8.2-1.8c-0.1-2.8-0.2-5-0.2-6.7
				c0-7.6,1.4-13.2,4.1-16.8c2.4-3.2,6-5.7,10.6-7.5c4.2-1.6,8.5-2.5,13-2.5c0.4,0,0.7,0.2,0.9,0.7c0,0.1,0.4,1.9,1.1,5.5
				C178.5,150.1,178.8,151.9,178.8,152.1z"/>
		</g>
		<g>
			<path class="st1" d="M525.7,167.4c0,4.8-0.3,9.1-1,13c-0.1,1-0.6,1.5-1.3,1.5c-0.9,0-2.3-0.1-4.1-0.3c-1.8-0.2-3.2-0.3-4.2-0.3
				c-5.4,0-8.9,1.5-10.4,4.6c-0.9,1.9-1.4,5.7-1.4,11.6v7.1c0,2.4,0.1,6.1,0.3,11c0.2,4.9,0.3,8.6,0.3,11c0,1.2-0.5,1.8-1.5,1.8
				c-1.3,0-3.4,0-6.1-0.1c-2.7,0-4.8-0.1-6.1-0.1c-1,0-1.5-0.5-1.5-1.6c0-3.5,0.1-8.8,0.2-15.8c0.1-7,0.2-12.3,0.2-15.9
				c0-10.7-1-19.2-3-25.7c-0.1-0.3-0.1-0.6-0.1-0.8c0-0.5,0.3-0.9,0.8-1.1c1.6-0.2,3.8-0.4,6.7-0.8c4.7-0.9,6.8-1.3,6.5-1.3
				c0.7,0,1.1,1.3,1.4,3.8c0.2,2.5,0.6,3.8,1.2,3.8c0.1,0,0.2,0,0.3-0.1c1.8-1.1,3.5-2.2,5.3-3.4c1.9-1.2,3.9-2,6-2.6
				c1.7-0.5,3.8-0.8,6.5-0.8C524,166.1,525.7,166.5,525.7,167.4z"/>
			<path class="st1" d="M631.3,225.9c0,1.7-0.5,2.5-1.5,2.5c-0.6,0-1.6-0.1-2.9-0.2c-1.3-0.1-2.3-0.2-3-0.2c-0.7,0-1.8,0-3.3,0.1
				c-1.5,0.1-2.6,0.1-3.3,0.1c-0.9,0-1.4-1-1.4-3c0-2,0.1-5,0.2-8.9c0.2-4,0.2-6.9,0.2-8.9c0-10.9,0-17-0.1-18.3
				c-0.3-4.4-1.3-7.5-2.7-9.2c-1.7-1.8-4.7-2.7-9-2.7c-2.7,0-5.8,1.3-9.2,3.9c-3.5,2.7-5.4,5.4-5.5,8c-0.2,3.4-0.3,9.5-0.3,18.5
				c0,2.1,0.1,5.3,0.3,9.5c0.2,4.2,0.3,7.4,0.3,9.5c0,1.2-0.4,1.8-1.2,1.8s-1.9-0.1-3.4-0.2c-1.5-0.1-2.6-0.2-3.4-0.2
				c-0.7,0-1.7,0-3,0.1c-1.3,0.1-2.4,0.1-3,0.1c-0.9,0-1.3-0.6-1.3-1.9c0-2.1,0.1-5.2,0.2-9.4c0.1-4.2,0.2-7.3,0.2-9.4v-15.6
				c0-4.9-0.6-8.4-1.7-10.4c-1.6-2.9-4.8-4.4-9.4-4.4c-2.7,0-6,1.1-9.7,3.4c-4.1,2.5-6.2,5-6.2,7.6v18.9c0,2.2,0,5.4,0.1,9.7
				s0.1,7.5,0.1,9.6c0,1.3-0.5,1.9-1.5,1.9h-12.1c-0.9,0-1.3-0.6-1.3-1.7c0-3.5,0-8.8,0.1-15.8c0-7,0.1-12.3,0.1-15.8
				c0-7.9-0.8-15.8-2.5-23.7c-0.1-0.6-0.2-1-0.2-1.4c0-0.6,0.2-0.9,0.6-1c1.6-0.2,3.9-0.5,7-1c1.4-0.4,3.6-0.9,6.4-1.4l0.5-0.1
				c0.5,0,1,1.5,1.5,4.6c0.5,3,0.9,4.6,1.2,4.6l3.2-2.9c2.5-2.2,5.1-4,7.6-5.2c3.7-1.9,7.3-2.9,11-2.9c9.9,0,16.3,4.1,19,12.2
				c2.7-3.5,6-6.3,10-8.6c4.2-2.4,8.4-3.6,12.6-3.6c8,0,13.5,2.3,16.6,7c2.2,3.5,3.3,8.9,3.3,16.4c0,1.4,0,3.6-0.1,6.6
				c-0.1,3-0.1,5.2-0.1,6.6c0,2.7,0.1,6.8,0.2,12.3C631.2,219.1,631.3,223.2,631.3,225.9z"/>
			<path class="st1" d="M674.5,208.3c0,6.4-2.6,11.6-7.7,15.5c-4.7,3.5-10.3,5.3-17,5.3c-2.6,0-4.1-0.1-4.4-0.2
				c-0.7-0.3-1.1-1.4-1.1-3.2c0-0.9-0.1-2.4-0.4-4.3c-0.2-1.9-0.4-3.3-0.4-4.2c0-0.6,0.4-0.9,1.2-1.1c0.6-0.1,1.4-0.1,2.4,0
				c1.3,0.1,2,0.2,1.9,0.2c8.2,0,12.2-2.5,12.2-7.5c0-2.4-1.8-4.6-5.4-6.5c-5.8-3.2-9.2-5.2-10-5.9c-3.6-3.1-5.4-7.1-5.4-12.1
				c0-6.5,2.4-11.5,7.3-15.2c4.4-3.2,10-4.9,16.7-4.9c0.6,0,1,0.3,1.3,0.8c0.3,0.6,0.8,2.3,1.6,5.2c0.8,2.9,1.2,4.7,1.2,5.3
				c0,0.5-0.4,0.8-1.2,0.9c-2.8,0.4-5.6,0.8-8.4,1.1c-3.3,0.9-5,2.7-5,5.4c0,1.9,1.8,3.9,5.2,5.9c5.2,2.9,8.5,5,9.8,6.3
				C672.7,198.7,674.5,203,674.5,208.3z"/>
		</g>
		<g class="st2">
			<path class="st3" d="M54.7,171.2c0.2,1.4,0.3,3,0.3,4.7c0,10.1-6,15.1-17.9,15.1c-4.8,0-9.2-0.1-13.3-0.3c-1.8-0.1-3-0.2-3.8-0.3
				c-0.4-0.1-0.7-0.2-0.8-0.3v-12.4c0-10.2,0.2-16.4,0.5-18.7c0.1-1.1,3.7-1.7,10.7-1.7c1.2,0,2.3,0,3.4,0.1c3-2.7,5.6-5.6,6.7-10
				c0.3-1.2,0.5-2.3,0.6-3.4c-0.8,0-1.6-0.1-2.5-0.1c-3.7,0-9.2,0.1-16.6,0.3c-7.4,0.2-13,0.3-16.7,0.3c-1.9,0-2.8,0.4-2.7,1.3
				l0.1,1c1,15.5,1.5,30,1.5,43.7c0,4.8-0.2,12-0.7,21.6c-0.5,9.6-0.7,16.8-0.7,21.6c0,1,0.5,1.5,1.6,1.5c0.7,0,1.9-0.1,3.4-0.2
				c1.5-0.1,2.6-0.2,3.4-0.2c0.9,0,2.2,0.1,4,0.3c1.7,0.2,3.1,0.3,3.9,0.3c0.9,0,1.3-0.5,1.3-1.4c0-3-0.1-7.5-0.4-13.5
				c-0.3-6-0.4-10.5-0.4-13.6c0-2.1,0.5-3.2,1.4-3.3c1.1-0.2,4.7-0.3,10.6-0.3c3.4,0,5.3,0,5.9,0.1c2.5,0.3,4.1,1.3,4.7,2.9
				c4,9.5,7.1,16.6,9.1,21.3c2.8-3.7,5-7.8,6.2-12.3c0.9-3.1,1.7-6.2,2.3-9.3c-1.6-3.6-2.5-5.6-2.5-6c0-0.5,0.4-1.1,1.2-1.6
				c1-0.7,1.9-1.4,2.7-2.1c0.1-0.7,0.1-1.4,0.2-2.1c0.3-5.9,0.2-12.7-2.7-18C57.6,174.1,56.2,172.5,54.7,171.2z"/>
		</g>
		<g class="st2">
			<path class="st3" d="M588.7,176.9c-0.5-1.6-1.2-3.1-2.1-4.4c-1.1,4.1-2.2,8.3-3.2,12.4c-2,8-3.8,15.9-5.5,24
				c-1.1,5.2-1.5,10.5-3.2,15.5c0,0.7,0,1.4,0,2c0,1.3,0.4,1.9,1.3,1.9c0.7,0,1.7,0,3-0.1c1.3-0.1,2.4-0.1,3-0.1
				c0.8,0,1.9,0.1,3.4,0.2c1.5,0.1,2.6,0.2,3.4,0.2c0.8,0,1.2-0.6,1.2-1.7c0-2.1-0.1-5.3-0.3-9.5c-0.2-4.2-0.3-7.4-0.3-9.5
				c0-8.9,0.1-15.1,0.3-18.5c0.1-2.1,1.3-4.2,3.6-6.4c0.3-4.2,1-8.3,2-12.3C592.8,172.3,590.6,174.5,588.7,176.9z"/>
			<path class="st3" d="M661.1,227c1.1-1.6,2.2-3.3,3-5.1c1.1-2.4,2.3-5.9-0.1-8c-1.1-1-2.5-1.4-3.8-1.5c-1.7,2.5-5.4,3.8-11.2,3.8
				c0,0-0.6-0.1-1.9-0.2c-1-0.1-1.8-0.1-2.4,0c-0.8,0.2-1.2,0.5-1.2,1.1c0,0.9,0.1,2.3,0.4,4.2c0.2,1.9,0.4,3.3,0.4,4.3
				c0,1.8,0.4,2.8,1.1,3.2c0.3,0.1,1.8,0.2,4.4,0.2C653.9,229.1,657.7,228.4,661.1,227z"/>
		</g>
		<g>
			<path class="st1" d="M28.3,105v-0.9c0-0.6,0.1-1.1,0.4-1.3c0.2-0.3,0.6-0.4,0.9-0.4c0.4,0,0.7,0.1,0.9,0.4
				c0.2,0.3,0.4,0.7,0.4,1.3v6.6c0,0.6-0.1,1.1-0.4,1.3c-0.2,0.3-0.6,0.4-0.9,0.4c-0.4,0-0.7-0.1-0.9-0.4c-0.2-0.2-0.4-0.6-0.4-1.2
				c-0.1-1.7-1-3.3-2.7-4.7c-1.7-1.4-3.9-2.1-6.6-2.1c-2.9,0-5.1,0.7-6.8,2.2c-1.7,1.5-2.5,3.2-2.5,5.2c0,1,0.2,2,0.7,2.8
				c0.5,0.8,1.1,1.5,1.9,2.1c0.8,0.5,1.7,0.9,2.7,1.3c1,0.3,2.5,0.7,4.6,1c3.5,0.6,6,1.2,7.3,1.8c1.8,0.8,3.1,1.9,4.1,3.3
				c0.9,1.4,1.4,3.1,1.4,5c0,3-1.2,5.5-3.6,7.6c-2.4,2.1-5.6,3.1-9.6,3.1c-4.5,0-8.1-1.4-10.8-4.2v1.5c0,0.6-0.1,1.1-0.4,1.3
				c-0.2,0.3-0.6,0.4-0.9,0.4c-0.4,0-0.7-0.1-0.9-0.4c-0.2-0.3-0.4-0.7-0.4-1.3v-7.2c0-0.6,0.1-1.1,0.4-1.4c0.2-0.3,0.6-0.4,0.9-0.4
				c0.4,0,0.7,0.1,0.9,0.4c0.2,0.2,0.4,0.6,0.4,1.2c0.1,1.9,1.1,3.6,3,5.2s4.5,2.3,7.8,2.3s5.8-0.8,7.7-2.4c1.9-1.6,2.8-3.6,2.8-5.8
				c0-1.4-0.4-2.6-1.1-3.6c-0.7-1.1-1.8-1.9-3.2-2.5c-1-0.4-3.1-0.9-6.2-1.5c-4.3-0.7-7.4-1.8-9.3-3.3c-1.9-1.5-2.8-3.6-2.8-6.3
				c0-2.7,1.1-5.1,3.3-7c2.2-2,5-2.9,8.6-2.9C22.6,101.6,25.7,102.7,28.3,105z"/>
			<path class="st1" d="M46.2,105v31h17.3v-10.3c0-0.6,0.1-1.1,0.4-1.3c0.2-0.3,0.6-0.4,1-0.4c0.4,0,0.7,0.1,0.9,0.4
				c0.2,0.3,0.4,0.7,0.4,1.3v12.9H37.4c-0.6,0-1.1-0.1-1.3-0.4c-0.3-0.2-0.4-0.6-0.4-0.9c0-0.4,0.1-0.7,0.4-0.9
				c0.3-0.2,0.7-0.4,1.3-0.4h6.2v-31h-6.2c-0.6,0-1.1-0.1-1.3-0.4c-0.3-0.2-0.4-0.6-0.4-0.9s0.1-0.7,0.4-0.9
				c0.3-0.2,0.7-0.4,1.3-0.4h15c0.6,0,1.1,0.1,1.3,0.4c0.3,0.2,0.4,0.6,0.4,0.9s-0.1,0.7-0.4,0.9c-0.3,0.2-0.7,0.4-1.3,0.4H46.2z"/>
		</g>
		<g>
			
				<linearGradient id="SVGID_1_" gradientUnits="userSpaceOnUse" x1="411.6806" y1="158.1807" x2="411.6086" y2="468.0551" gradientTransform="matrix(-0.7488 0.6628 -0.6628 -0.7488 824.0423 139.1304)">
				<stop  offset="0" style="stop-color:#FFB300"/>
				<stop  offset="7.609078e-02" style="stop-color:#FFAE08"/>
				<stop  offset="0.1787" style="stop-color:#FFAC0C"/>
				<stop  offset="0.2153" style="stop-color:#FEA70F"/>
				<stop  offset="0.2573" style="stop-color:#FC9919"/>
				<stop  offset="0.3022" style="stop-color:#F88228"/>
				<stop  offset="0.3487" style="stop-color:#F3623E"/>
				<stop  offset="0.3513" style="stop-color:#F3603F"/>
				<stop  offset="0.3636" style="stop-color:#F2583A"/>
				<stop  offset="0.4193" style="stop-color:#F13825"/>
				<stop  offset="0.4773" style="stop-color:#EF1F15"/>
				<stop  offset="0.5378" style="stop-color:#EE0E09"/>
				<stop  offset="0.6023" style="stop-color:#ED0302"/>
				<stop  offset="0.678" style="stop-color:#ED0000"/>
				<stop  offset="0.7493" style="stop-color:#D90018"/>
				<stop  offset="0.8302" style="stop-color:#C8002B"/>
				<stop  offset="0.9131" style="stop-color:#BE0036"/>
				<stop  offset="1" style="stop-color:#BB003A"/>
			</linearGradient>
			<path class="st4" d="M395.7,228.3L395.7,228.3c0.2,0.3,0.5,0.7,0.7,1c0.2,0.3,0.5,0.7,0.8,1c0.3,0.3,0.5,0.7,0.8,1
				c0.1,0.1,0.1,0.2,0.2,0.2c0.3,0.4,0.6,0.7,0.9,1.1c0.4,0.6,0.9,1.1,1.4,1.7c0.1,0.2,0.3,0.3,0.4,0.5c0.4,0.5,0.8,1,1.2,1.4
				c11.7,13.2,26.3,22.4,42.1,27.3c-2.5,2.6-5.1,5-7.8,7.4c-64.1,56.7-162,50.7-218.7-13.3c-39.2-44.3-48.4-104.7-29.3-156.5
				c8.6-23.2,22.8-44.7,42.6-62.2c24.2-21.4,53.2-33.9,83-37.7"/>
			<linearGradient id="SVGID_2_" gradientUnits="userSpaceOnUse" x1="163.3686" y1="202.3218" x2="344.0214" y2="21.6689">
				<stop  offset="0" style="stop-color:#FFCC00"/>
				<stop  offset="9.099997e-02" style="stop-color:#FDD001"/>
				<stop  offset="0.1775" style="stop-color:#F6DB04"/>
				<stop  offset="0.2618" style="stop-color:#EAEE0A"/>
				<stop  offset="0.2917" style="stop-color:#E5F70C"/>
				<stop  offset="0.337" style="stop-color:#D9F30B"/>
				<stop  offset="0.4187" style="stop-color:#B9E709"/>
				<stop  offset="0.5276" style="stop-color:#86D405"/>
				<stop  offset="0.6581" style="stop-color:#40BB01"/>
				<stop  offset="0.672" style="stop-color:#38B800"/>
				<stop  offset="0.7437" style="stop-color:#38B906"/>
				<stop  offset="0.8374" style="stop-color:#37BC16"/>
				<stop  offset="0.8876" style="stop-color:#36BE22"/>
				<stop  offset="1" style="stop-color:#74A900"/>
			</linearGradient>
			<path class="st5" d="M336.1,48.7c0,0.6,0,1.3,0,1.9c0,0.2,0,0.5,0,0.7c0,0.7,0,1.4-0.1,2.1c0,0.5,0,0.9-0.1,1.4
				c0,0.1,0,0.2,0,0.3c0,0.4-0.1,0.8-0.1,1.3c0,0.4-0.1,0.8-0.1,1.3c0,0.4-0.1,0.8-0.1,1.3v0c-52.9,0.1-95.7,43.1-95.7,96
				c0,7.7,0.9,15.3,2.7,22.5v0c0,0,0,0.1,0,0.1c-0.2,1.3-0.4,2.6-0.7,3.9c-0.4,2.5-0.9,4.9-1.5,7.3c-0.2,0.7-0.3,1.4-0.5,2.2
				c-0.3,1.2-0.6,2.5-0.9,3.7c-0.2,0.8-0.4,1.5-0.6,2.3c-0.2,0.9-0.5,1.8-0.7,2.6c-0.2,0.6-0.3,1.2-0.5,1.8c0,0.2-0.1,0.3-0.1,0.5
				c-0.1,0.3-0.2,0.7-0.3,1c-0.2,0.6-0.4,1.3-0.6,1.9c-0.2,0.6-0.4,1.2-0.6,1.8c-0.1,0.2-0.1,0.3-0.2,0.5c-0.1,0.3-0.2,0.6-0.3,0.9
				c-0.2,0.6-0.4,1.2-0.6,1.8c-0.3,0.8-0.6,1.6-0.8,2.3c-0.5,1.3-1,2.5-1.5,3.8c-0.3,0.8-0.6,1.5-0.9,2.3c-0.3,0.7-0.6,1.3-0.8,2
				c-0.5,1-0.9,2.1-1.4,3.1c-0.2,0.4-0.4,0.8-0.6,1.2c-1.3,2.7-2.6,5.2-4,7.7c-0.2,0.4-0.4,0.8-0.7,1.2c-0.6,1-1.1,1.9-1.7,2.9
				c-0.3,0.4-0.5,0.9-0.8,1.3c-0.3,0.4-0.6,0.9-0.8,1.3c-0.6,1-1.2,1.9-1.9,2.8c-0.2,0.3-0.5,0.7-0.7,1c-1.2,1.7-2.4,3.3-3.6,4.8
				c-0.4,0.5-0.8,0.9-1.1,1.4c-0.5,0.6-1.1,1.3-1.6,1.9c-20.7-26.3-33-59.5-33-95.6c0-11.3,1.2-22.3,3.5-32.9
				c6.1-28.3,19.9-53.6,39.1-73.8c25.9-27.3,61.7-45.1,101.5-47.8C331.2,14.5,336.1,31,336.1,48.7z"/>
			<linearGradient id="SVGID_3_" gradientUnits="userSpaceOnUse" x1="376.019" y1="0" x2="376.019" y2="277.2085">
				<stop  offset="0" style="stop-color:#FFB300"/>
				<stop  offset="7.609078e-02" style="stop-color:#FFAE08"/>
				<stop  offset="0.1787" style="stop-color:#FFAC0C"/>
				<stop  offset="0.2341" style="stop-color:#FD971B"/>
				<stop  offset="0.3476" style="stop-color:#F66241"/>
				<stop  offset="0.4032" style="stop-color:#F34655"/>
				<stop  offset="0.4984" style="stop-color:#D45767"/>
				<stop  offset="0.5538" style="stop-color:#C75E6F"/>
				<stop  offset="0.7102" style="stop-color:#A10A00"/>
				<stop  offset="0.7784" style="stop-color:#9C0535"/>
				<stop  offset="0.8548" style="stop-color:#97006D"/>
			</linearGradient>
			<path class="st6" d="M333.5,0c-3.6,0-7.2,0.1-10.8,0.4c8.5,14.1,13.4,30.7,13.4,48.3c0,0.6,0,1.3,0,1.9c0,0.2,0,0.5,0,0.7
				c0,0.7,0,1.4-0.1,2.1c0,0.5,0,0.9-0.1,1.4c0,0.1,0,0.2,0,0.3c0,0.4-0.1,0.8-0.1,1.3c0,0.4-0.1,0.8-0.1,1.3c0,0.4-0.1,0.8-0.1,1.3
				v0l-72,180.8c10.7-1.2,21.8-1.8,33.3-1.8c58.5,0,108.9,16.1,131.8,39.2c36.4-28.3,59.8-72.6,59.8-122.3
				C488.4,69.4,419.1,0,333.5,0z"/>
		</g>
		<circle class="st7" cx="332.6" cy="153.3" r="114.3"/>
		<g class="st2">
			<defs>
				<filter id="Adobe_OpacityMaskFilter" filterUnits="userSpaceOnUse" x="226.2" y="74.6" width="214.1" height="190.8">
					<feFlood  style="flood-color:white;flood-opacity:1" result="back"/>
					<feBlend  in="SourceGraphic" in2="back" mode="normal"/>
				</filter>
			</defs>
			<mask maskUnits="userSpaceOnUse" x="226.2" y="74.6" width="214.1" height="190.8" id="SVGID_4_">
				<g class="st8">
					
						<image style="overflow:visible;" width="909" height="812" xlink:href="5871EA1.jpg"  transform="matrix(0.24 0 0 0.24 224.2358 72.5635)">
					</image>
				</g>
			</mask>
			<g class="st9">
				<path class="st10" d="M440.4,158.3c0,52.7-51.8,107.1-106.2,107.1c-54.4,0-107.9-48.4-107.9-101c0-52.7,53.6-89.8,107.9-89.8
					C388.5,74.6,440.4,105.6,440.4,158.3z"/>
			</g>
		</g>
		<path class="st11" d="M407,119.7l-69.4,36c0,0-1.6,0.6-1.4,2.2c-0.1-0.1,0,79.3,0,79.3s0.6,1.4,2.3,0.4c0,0,69.5-37.2,69.5-37.2
			s0.7-0.2,0.7-1.5c0,0.1-0.1-78.9-0.1-78.9S408.2,119.1,407,119.7z"/>
		<path class="st12" d="M257.8,120.9c0,0,0.1-2.1,2.1-1.1c0,0,69.8,36.3,69.8,36.3s1.2,0.7,0.8,2.6l-0.7,78.1c0,0,0.1,1.9-2.2,0.8
			c0,0-68.7-36.5-68.7-36.5s-1.3-0.6-1.1-2.8C257.8,198.5,257.8,120.9,257.8,120.9z"/>
		<path class="st11" d="M265.3,113.2l66-33.4c0,0,2.2-0.6,4.4,0.5l66.1,32.9c0,0,1.3,1.2,0,1.7c-0.3,0.1-65.8,34.2-65.8,34.2
			s-2.5,1-4.8-0.7c-0.2-0.5-65.6-33.7-65.6-33.7S263.6,114,265.3,113.2z"/>
		<path class="st0" d="M363.4,195.3c-0.8-1.6-1.5-3-2.2-4.3c-0.8-1.6-1.7-3.1-2.6-4.6c-1.3-2.1-2.8-4-5.3-5.1c0.4-0.6,0.6-1,0.9-1.3
			c4-3.8,5.6-3,8.2,0.7c0.9,1.2,1.6,2.6,2.5,4c1.1-0.8,1.4-2,1.9-2.9c4.8-8.4,10.7-15.9,17.8-22.4c1.7-1.5,3.5-2.8,5.3-4.2
			c0.4-0.3,0.9-0.1,1.2,0.3c0.2,0.3,0.2,0.7,0,0.9c-0.2,0.3-0.5,0.5-0.7,0.8c-8.7,9-15.3,19.5-20.4,30.9c-0.8,1.9-1.7,3.6-3.5,4.7
			C365.4,193.4,364.6,194.3,363.4,195.3z"/>
		<path class="st0" d="M290.4,183.5c-1.5,1.4-2.9,2.8-4.4,4.1c-1,0.9-1.1,0.9-2.6,0c-0.4-0.2-0.8-0.4-1.3-0.4
			c-0.8,0.1-1.2-0.5-1.6-1.1c-1.9-3.4-1.9-3.4,1-5.9c1.2-1.1,2.5-2.2,3.7-3.3c1.4-1.3,1.4-1.4,0.5-3c-1.6-2.7-3.3-5.4-5-8.1
			c-0.4-0.7-1-1.3-1.3-2.1c-0.3-0.6-0.7-1.2-0.2-2c0.5-0.7,1.2-0.6,1.9-0.5c0.7,0.1,1.4,0.4,2.1,0.4c1.8,0,2.8,1,3.6,2.4
			c1.2,1.9,2.4,3.8,3.7,5.6c0.7,1,1.1,1.1,1.9,0.2c1.5-1.5,2.9-3.1,4.4-4.6c1.1-1.1,1.3-1.1,2.8-0.4c3.2,1.5,3.4,2,1.6,4.8
			c-1.4,2.3-3,4.5-4.7,6.6c-0.8,1-0.8,1.8-0.1,2.8c1.3,2.1,2.4,4.4,3.8,6.4c1.3,1.8,0.1,3.4,0,5c0,0.2-0.6,0.5-0.9,0.5
			c-1.3-0.1-2.6-0.3-3.9-0.5c-0.8-0.1-1.2-0.7-1.5-1.4c-0.6-1.3-1.2-2.5-1.9-3.8C291.7,184.8,291.5,184.1,290.4,183.5z"/>
		<path class="st10" d="M324,123.6c0,0,1.1,0.6,2.2,0c0,0,26.1-14.4,26.1-14.4s0.6-0.2,0-0.7c0,0-5.7-2.6-5.7-2.6s-0.6-0.2-1,0
			c0,0.1-26.6,13.7-26.6,13.7s-0.7,0.7,0,1C318.8,120.7,324,123.6,324,123.6z"/>
	</g>
	<g>
		<path class="st1" d="M684.5,224.3c0,1.5-0.5,2.7-1.5,3.8s-2.2,1.6-3.6,1.6s-2.6-0.6-3.6-1.7c-0.9-1.1-1.4-2.3-1.4-3.8
			c0-1.5,0.5-2.7,1.4-3.8c0.9-1,2.1-1.6,3.6-1.6c1.5,0,2.7,0.5,3.6,1.6C684,221.6,684.5,222.8,684.5,224.3z"/>
		<path class="st1" d="M720,213c0,4.6-1.5,8.5-4.5,11.8c-3.1,3.4-6.9,5.1-11.5,5.1c-4.6,0-8.4-1.7-11.5-5c-3-3.2-4.5-7.2-4.5-11.8
			s1.5-8.5,4.5-11.8c3.1-3.3,6.9-5,11.5-5c4.5,0,8.3,1.7,11.4,5C718.5,204.6,720,208.5,720,213z M713,213.1c0-2.7-0.8-5-2.5-6.9
			c-1.7-2-3.9-3-6.5-3c-2.6,0-4.8,1-6.6,3c-1.7,1.9-2.5,4.2-2.5,6.9c0,2.6,0.8,4.9,2.5,6.9c1.8,2,3.9,3.1,6.5,3.1
			c2.6,0,4.8-1,6.5-3.1C712.2,218,713,215.7,713,213.1z"/>
		<path class="st1" d="M743.5,198.1c0,2.4-0.2,4.6-0.5,6.6c-0.1,0.5-0.3,0.8-0.7,0.8c-0.5,0-1.2,0-2.1-0.1c-0.9-0.1-1.6-0.1-2.1-0.1
			c-2.8,0-4.5,0.8-5.3,2.3c-0.5,0.9-0.7,2.9-0.7,5.9v3.6c0,1.2,0,3.1,0.1,5.6c0.1,2.5,0.1,4.4,0.1,5.6c0,0.6-0.3,0.9-0.8,0.9
			c-0.7,0-1.7,0-3.1,0c-1.4,0-2.4,0-3.1,0c-0.5,0-0.8-0.3-0.8-0.8c0-1.8,0-4.5,0.1-8.1c0.1-3.6,0.1-6.3,0.1-8.1
			c0-5.4-0.5-9.8-1.5-13.1c0-0.2-0.1-0.3-0.1-0.4c0-0.3,0.1-0.5,0.4-0.6c0.8-0.1,2-0.2,3.4-0.4c2.4-0.4,3.5-0.7,3.3-0.7
			c0.4,0,0.6,0.7,0.7,1.9c0.1,1.3,0.3,1.9,0.6,1.9c0,0,0.1,0,0.2-0.1c0.9-0.6,1.8-1.1,2.7-1.7c1-0.6,2-1,3-1.3
			c0.9-0.3,2-0.4,3.3-0.4C742.7,197.4,743.5,197.6,743.5,198.1z"/>
		<path class="st1" d="M776.3,198.3c0,2.6,0,6.6-0.1,11.9s-0.1,9.3-0.1,11.9c0,5.2-1.1,9.1-3.4,11.6c-2.4,2.6-6.1,4-11.3,4
			c-5,0-9-0.9-12.1-2.8c-0.5-0.3-0.7-0.6-0.7-0.8c0,0.2,0.3-1.4,1-4.9c0.1-0.4,0.2-0.6,0.5-0.6c0.1,0,0.3,0.1,0.4,0.2
			c3.3,1.9,6.6,2.8,9.9,2.8c2.2,0,4-0.5,5.4-1.5c1.7-1.1,2.5-2.7,2.5-4.8c0-0.5,0-1.5-0.1-3.1c-2.4,3-5.5,4.5-9.3,4.5
			c-4.1,0-7.4-1.5-10-4.4c-2.5-2.8-3.8-6.3-3.8-10.4c0-4.2,1.2-7.7,3.6-10.7c2.6-3.1,5.9-4.7,10-4.7c3.6,0,6.5,1.4,8.7,4.2
			c0.4,0.5,0.6,0.7,0.8,0.7c0.2,0,0.3-0.2,0.3-0.6c0-0.3,0-0.7-0.1-1.4c0-0.6-0.1-1.1-0.1-1.4c0-1.3,0.1-2,0.4-2
			c0.2,0,1.4,0.2,3.6,0.6c2.2,0.4,3.3,0.7,3.5,0.7C776.1,197.6,776.3,197.9,776.3,198.3z M768.3,211.9c0-2.5-0.7-4.6-2-6.3
			c-1.5-1.9-3.4-2.8-5.8-2.8c-2.4,0-4.3,0.9-5.8,2.8c-1.3,1.7-2,3.8-2,6.2c0,2.4,0.7,4.5,2,6.2c1.5,1.9,3.4,2.8,5.7,2.8
			c2.3,0,4.2-0.9,5.7-2.8C767.6,216.4,768.3,214.3,768.3,211.9z"/>
	</g>
</g>
</svg>
